<?xml version="1.0" encoding="UTF-8" standalone="no"?>
<svg
   xmlns:dc="http://purl.org/dc/elements/1.1/"
   xmlns:cc="http://creativecommons.org/ns#"
   xmlns:rdf="http://www.w3.org/1999/02/22-rdf-syntax-ns#"
   xmlns:svg="http://www.w3.org/2000/svg"
   xmlns="http://www.w3.org/2000/svg"
   xmlns:sodipodi="http://sodipodi.sourceforge.net/DTD/sodipodi-0.dtd"
   xmlns:inkscape="http://www.inkscape.org/namespaces/inkscape"
   width="210mm"
   height="297mm"
   viewBox="0 0 210 297"
   version="1.1"
   id="svg8"
   inkscape:version="1.0.2 (1.0.2+r75+1)"
   sodipodi:docname="machine.svg">
  <defs
     id="defs2">
    <rect
       x="76.729167"
       y="71.4375"
       width="79.375"
       height="10.583333"
       id="rect1731" />
    <marker
       style="overflow:visible;"
       id="Arrow2Send"
       refX="0.0"
       refY="0.0"
       orient="auto"
       inkscape:stockid="Arrow2Send"
       inkscape:isstock="true">
      <path
         transform="scale(0.3) rotate(180) translate(-2.3,0)"
         d="M 8.7185878,4.0337352 L -2.2072895,0.016013256 L 8.7185884,-4.0017078 C 6.9730900,-1.6296469 6.9831476,1.6157441 8.7185878,4.0337352 z "
         style="fill-rule:evenodd;stroke-width:0.625;stroke-linejoin:round;stroke:#008000;stroke-opacity:1;fill:#008000;fill-opacity:1"
         id="path1060" />
    </marker>
    <marker
       style="overflow:visible;"
       id="Arrow1Send"
       refX="0.0"
       refY="0.0"
       orient="auto"
       inkscape:stockid="Arrow1Send"
       inkscape:isstock="true">
      <path
         transform="scale(0.2) rotate(180) translate(6,0)"
         style="fill-rule:evenodd;stroke:#008000;stroke-width:1pt;stroke-opacity:1;fill:#008000;fill-opacity:1"
         d="M 0.0,0.0 L 5.0,-5.0 L -12.5,0.0 L 5.0,5.0 L 0.0,0.0 z "
         id="path1042" />
    </marker>
    <marker
       style="overflow:visible;"
       id="Arrow1Mend"
       refX="0.0"
       refY="0.0"
       orient="auto"
       inkscape:stockid="Arrow1Mend"
       inkscape:isstock="true">
      <path
         transform="scale(0.4) rotate(180) translate(10,0)"
         style="fill-rule:evenodd;stroke:#000000;stroke-width:1pt;stroke-opacity:1;fill:#000000;fill-opacity:1"
         d="M 0.0,0.0 L 5.0,-5.0 L -12.5,0.0 L 5.0,5.0 L 0.0,0.0 z "
         id="path1036" />
    </marker>
    <marker
       style="overflow:visible"
       id="Arrow1Lstart"
       refX="0.0"
       refY="0.0"
       orient="auto"
       inkscape:stockid="Arrow1Lstart"
       inkscape:isstock="true">
      <path
         transform="scale(0.8) translate(12.5,0)"
         style="fill-rule:evenodd;stroke:#000000;stroke-width:1pt;stroke-opacity:1;fill:#000000;fill-opacity:1"
         d="M 0.0,0.0 L 5.0,-5.0 L -12.5,0.0 L 5.0,5.0 L 0.0,0.0 z "
         id="path1027" />
    </marker>
    <marker
       style="overflow:visible"
       id="Arrow2Send-5"
       refX="0"
       refY="0"
       orient="auto"
       inkscape:stockid="Arrow2Send"
       inkscape:isstock="true">
      <path
         transform="matrix(-0.3,0,0,-0.3,0.69,0)"
         d="M 8.7185878,4.0337352 -2.2072895,0.01601326 8.7185884,-4.0017078 c -1.7454984,2.3720609 -1.7354408,5.6174519 -6e-7,8.035443 z"
         style="fill:#008000;fill-opacity:1;fill-rule:evenodd;stroke:#008000;stroke-width:0.625;stroke-linejoin:round;stroke-opacity:1"
         id="path1060-3" />
    </marker>
  </defs>
  <sodipodi:namedview
     id="base"
     pagecolor="#ffffff"
     bordercolor="#666666"
     borderopacity="1.0"
     inkscape:pageopacity="0.0"
     inkscape:pageshadow="2"
     inkscape:zoom="0.7"
     inkscape:cx="662.38093"
     inkscape:cy="444.09144"
     inkscape:document-units="mm"
     inkscape:current-layer="layer1"
     inkscape:document-rotation="0"
     showgrid="true"
     inkscape:window-width="1880"
     inkscape:window-height="1141"
     inkscape:window-x="40"
     inkscape:window-y="0"
     inkscape:window-maximized="1">
    <inkscape:grid
       type="xygrid"
       id="grid979" />
  </sodipodi:namedview>
  <metadata
     id="metadata5">
    <rdf:RDF>
      <cc:Work
         rdf:about="">
        <dc:format>image/svg+xml</dc:format>
        <dc:type
           rdf:resource="http://purl.org/dc/dcmitype/StillImage" />
        <dc:title></dc:title>
      </cc:Work>
    </rdf:RDF>
  </metadata>
  <g
     inkscape:label="Calque 1"
     inkscape:groupmode="layer"
     id="layer1">
    <path
       d="m 83.908371,107.91455 c 0,-3.95844 -3.220508,-7.17894 -7.179204,-7.17894 -3.958696,0 -7.179204,3.2205 -7.179204,7.17894 0,3.95869 3.220508,7.1792 7.179204,7.1792 3.958696,0 7.179204,-3.22051 7.179204,-7.1792 z m -7.179204,3.21045 c -1.770062,0 -3.210454,-1.44013 -3.210454,-3.21045 0,-1.77033 1.440127,-3.21019 3.210454,-3.21019 1.770327,0 3.210454,1.43986 3.210454,3.21019 0,1.77032 -1.440127,3.21045 -3.210454,3.21045 z"
       id="path835"
       style="stroke-width:0;stroke-miterlimit:4;stroke-dasharray:none" />
    <path
       d="m 119.0625,121.70833 h 4.47543 c 1.09617,0 1.98437,-0.8882 1.98437,-1.98437 0,-1.09617 -0.8882,-1.98438 -1.98437,-1.98438 h -4.47543 c -1.09617,0 -1.98438,0.88821 -1.98438,1.98438 0,1.09617 0.88848,1.98437 1.98438,1.98437 z"
       id="path839"
       style="stroke-width:0;stroke-miterlimit:4;stroke-dasharray:none" />
    <path
       d="m 143.06893,116.41667 c 0,3.95869 3.22051,7.1792 7.17921,7.1792 3.95843,0 7.17894,-3.22051 7.17894,-7.1792 0,-3.95844 -3.22051,-7.17894 -7.17894,-7.17894 -3.9587,0 -7.17921,3.2205 -7.17921,7.17894 z m 10.3894,0 c 0,1.77006 -1.43986,3.21045 -3.21019,3.21045 -1.77033,0 -3.21046,-1.44013 -3.21046,-3.21045 0,-1.77033 1.44013,-3.21019 3.21046,-3.21019 1.77033,0 3.21019,1.44012 3.21019,3.21019 z"
       id="path841"
       style="stroke-width:0;stroke-miterlimit:4;stroke-dasharray:none" />
    <path
       d="m 108.47917,121.70833 h 4.47543 c 1.09617,0 1.98437,-0.8882 1.98437,-1.98437 0,-1.09617 -0.8882,-1.98438 -1.98437,-1.98438 h -4.47543 c -1.09617,0 -1.98437,0.88821 -1.98437,1.98438 0,1.09617 0.8882,1.98437 1.98437,1.98437 z"
       id="path843"
       style="stroke-width:0;stroke-miterlimit:4;stroke-dasharray:none" />
    <path
       d="m 129.64583,108.47917 c 0,-1.09617 -0.8882,-1.98438 -1.98437,-1.98438 h -4.47543 c -1.09617,0 -1.98437,0.88821 -1.98437,1.98438 0,1.09617 0.8882,1.98437 1.98437,1.98437 h 4.47543 c 1.0959,0 1.98437,-0.8882 1.98437,-1.98437 z"
       id="path845"
       style="stroke-width:0;stroke-miterlimit:4;stroke-dasharray:none" />
    <g
       id="g1727"
       transform="translate(-0.45346351,55.741673)">
      <path
         d="m 136.73346,74.097835 c 2.02221,0 3.66712,-1.64518 3.66712,-3.667125 V 32.6326 c 0,-2.022211 -1.64518,-3.667125 -3.66712,-3.667125 H 93.56113 c -2.02221,0 -3.66686,1.645179 -3.66686,3.667125 v 37.797845 c 0,2.02221 1.644914,3.667125 3.66686,3.667125 h 43.17233 z M 93.86302,32.934225 h 42.56908 v 37.19486 H 93.86302 Z"
         id="path833"
         style="stroke-width:0;stroke-miterlimit:4;stroke-dasharray:none" />
      <path
         d="m 105.43563,46.070787 c 0.50774,0 1.01574,-0.193675 1.40335,-0.581025 l 3.17474,-3.174735 c 0.77496,-0.77523 0.77496,-2.031471 0,-2.806436 -0.77523,-0.7747 -2.03148,-0.7747 -2.80644,0 l -3.17474,3.174736 c -0.77496,0.775229 -0.77496,2.03147 0,2.806435 0.38735,0.38735 0.89535,0.581025 1.40309,0.581025 z"
         id="path871"
         style="stroke-width:0;stroke-miterlimit:4;stroke-dasharray:none" />
      <path
         d="M 118.45763,39.508327 102.9623,55.003649 c -0.77496,0.77523 -0.77496,2.031471 0,2.806436 0.38762,0.38735 0.89562,0.581025 1.40335,0.581025 0.50774,0 1.01574,-0.193675 1.40335,-0.581025 l 15.49533,-15.495323 c 0.77496,-0.775229 0.77496,-2.031471 0,-2.806435 -0.7755,-0.774436 -2.03174,-0.774436 -2.8067,0 z"
         id="path873"
         style="stroke-width:0;stroke-miterlimit:4;stroke-dasharray:none" />
    </g>
    <path
       d="m 60.620241,59.230628 v -7.110677 c 0,-1.550723 -1.261798,-2.81252 -2.812521,-2.81252 H 42.280382 c -1.550722,0 -2.81252,1.261797 -2.81252,2.81252 v 7.110677 c 0,1.550723 1.261798,2.812521 2.81252,2.812521 H 57.80772 c 1.550723,0 2.812521,-1.261798 2.812521,-2.812521 z m -3.96875,-1.156229 H 43.436612 v -4.798218 h 13.214614 v 4.798218 z"
       id="path875"
       style="stroke-width:0;stroke-miterlimit:4;stroke-dasharray:none" />
    <path
       d="m 45.044485,64.95357 h -2.89904 c -1.096168,0 -1.984375,0.888206 -1.984375,1.984375 0,1.096169 0.888207,1.984375 1.984375,1.984375 h 2.89904 c 1.096169,0 1.984375,-0.888206 1.984375,-1.984375 0,-1.096169 -0.888471,-1.984375 -1.984375,-1.984375 z"
       id="path877"
       style="stroke-width:0;stroke-miterlimit:4;stroke-dasharray:none" />
    <path
       d="m 61.943158,83.474403 h -2.89904 c -1.096168,0 -1.984375,0.888206 -1.984375,1.984375 0,1.096169 0.888207,1.984375 1.984375,1.984375 h 2.89904 c 1.096169,0 1.984375,-0.888206 1.984375,-1.984375 0,-1.096169 -0.888206,-1.984375 -1.984375,-1.984375 z"
       id="path879"
       style="stroke-width:0;stroke-miterlimit:4;stroke-dasharray:none" />
    <path
       d="m 45.044485,71.511533 h -2.89904 c -1.096168,0 -1.984375,0.888206 -1.984375,1.984374 0,1.096169 0.888207,1.984375 1.984375,1.984375 h 2.89904 c 1.096169,0 1.984375,-0.888206 1.984375,-1.984375 0,-1.096168 -0.888471,-1.984374 -1.984375,-1.984374 z"
       id="path881"
       style="stroke-width:0;stroke-miterlimit:4;stroke-dasharray:none" />
    <path
       d="m 56.651491,71.511533 h -2.89904 c -1.096168,0 -1.984375,0.888206 -1.984375,1.984374 0,1.096169 0.888207,1.984375 1.984375,1.984375 h 2.89904 c 1.096169,0 1.984375,-0.888206 1.984375,-1.984375 0,-1.096168 -0.888206,-1.984374 -1.984375,-1.984374 z"
       id="path883"
       style="stroke-width:0;stroke-miterlimit:4;stroke-dasharray:none" />
    <path
       d="m 45.044485,78.069495 h -2.89904 c -1.096168,0 -1.984375,0.888206 -1.984375,1.984375 0,1.096169 0.888207,1.984375 1.984375,1.984375 h 2.89904 c 1.096169,0 1.984375,-0.888206 1.984375,-1.984375 0,-1.096169 -0.888471,-1.984375 -1.984375,-1.984375 z"
       id="path885"
       style="stroke-width:0;stroke-miterlimit:4;stroke-dasharray:none" />
    <path
       d="m 56.651491,78.069495 h -2.89904 c -1.096168,0 -1.984375,0.888206 -1.984375,1.984375 0,1.096169 0.888207,1.984375 1.984375,1.984375 h 2.89904 c 1.096169,0 1.984375,-0.888206 1.984375,-1.984375 0,-1.096169 -0.888206,-1.984375 -1.984375,-1.984375 z"
       id="path887"
       style="stroke-width:0;stroke-miterlimit:4;stroke-dasharray:none" />
    <path
       d="m 159.75432,20.738256 c -0.77523,-0.7747 -2.03147,-0.7747 -2.80643,0 l -0.15293,0.152929 c -0.77497,0.775229 -0.77497,2.031471 0,2.806436 0.38761,0.38735 0.89561,0.581025 1.40335,0.581025 0.50773,0 1.01573,-0.193675 1.40335,-0.581025 l 0.15293,-0.15293 c 0.77443,-0.774964 0.77443,-2.031206 -2.7e-4,-2.806435 z"
       id="path891"
       style="stroke-width:0;stroke-miterlimit:4;stroke-dasharray:none" />
    <path
       d="m 70.540528,127.84134 c 0.387615,0.38735 0.895615,0.58102 1.40335,0.58102 0.507736,0 1.015736,-0.19367 1.40335,-0.58102 l 0.152929,-0.15293 c 0.774965,-0.77523 0.774965,-2.03147 0,-2.80644 -0.775229,-0.7747 -2.03147,-0.7747 -2.806435,0 l -0.152929,0.15293 c -0.775229,0.77496 -0.775229,2.03121 -2.65e-4,2.80644 z"
       id="path893"
       style="stroke-width:0;stroke-miterlimit:4;stroke-dasharray:none" />
    <path
       d="m 156.94762,127.84134 c 0.38762,0.38735 0.89562,0.58102 1.40335,0.58102 0.50774,0 1.01574,-0.19367 1.40335,-0.58102 0.77497,-0.77523 0.77497,-2.03148 0,-2.80644 l -0.15293,-0.15293 c -0.77523,-0.7747 -2.03147,-0.7747 -2.80643,0 -0.77497,0.77523 -0.77497,2.03147 0,2.80644 z"
       id="path895"
       style="stroke-width:0;stroke-miterlimit:4;stroke-dasharray:none" />
    <path
       d="m 90.709486,38.364583 h -4.860131 c -1.096169,0 -1.984375,0.888206 -1.984375,1.984375 0,1.096168 0.888206,1.984375 1.984375,1.984375 h 4.860131 c 1.096169,0 1.984375,-0.888207 1.984375,-1.984375 0,-1.096169 -0.888471,-1.984375 -1.984375,-1.984375 z"
       id="path847"
       style="stroke-width:0;stroke-miterlimit:4;stroke-dasharray:none" />
    <path
       d="m 107.07238,38.364583 h -4.86013 c -1.09617,0 -1.98438,0.888206 -1.98438,1.984375 0,1.096168 0.88821,1.984375 1.98438,1.984375 h 4.86013 c 1.09617,0 1.98437,-0.888207 1.98437,-1.984375 0,-1.096169 -0.88847,-1.984375 -1.98437,-1.984375 z"
       id="path849"
       style="stroke-width:0;stroke-miterlimit:4;stroke-dasharray:none" />
    <path
       d="m 123.435,38.364583 h -4.86013 c -1.09617,0 -1.98437,0.888206 -1.98437,1.984375 0,1.096168 0.8882,1.984375 1.98437,1.984375 h 4.86013 c 1.09617,0 1.98438,-0.888207 1.98438,-1.984375 0,-1.096169 -0.88821,-1.984375 -1.98438,-1.984375 z"
       id="path851"
       style="stroke-width:0;stroke-miterlimit:4;stroke-dasharray:none" />
    <path
       d="m 134.9375,42.333333 h 4.86013 c 1.09617,0 1.98438,-0.888207 1.98438,-1.984375 0,-1.096169 -0.88821,-1.984375 -1.98438,-1.984375 h -4.86013 c -1.09617,0 -1.98437,0.888206 -1.98437,1.984375 0,1.096168 0.8882,1.984375 1.98437,1.984375 z"
       id="path853"
       style="stroke-width:0;stroke-miterlimit:4;stroke-dasharray:none" />
    <path
       d="m 90.709486,46.453689 h -4.860131 c -1.096169,0 -1.984375,0.888206 -1.984375,1.984378 0,1.09617 0.888206,1.98438 1.984375,1.98438 h 4.860131 c 1.096169,0 1.984375,-0.88821 1.984375,-1.98438 0,-1.096172 -0.888471,-1.984378 -1.984375,-1.984378 z"
       id="path855"
       style="stroke-width:0;stroke-miterlimit:4;stroke-dasharray:none" />
    <path
       d="m 107.07238,46.453689 h -4.86013 c -1.09617,0 -1.98438,0.888206 -1.98438,1.984378 0,1.09617 0.88821,1.98438 1.98438,1.98438 h 4.86013 c 1.09617,0 1.98437,-0.88821 1.98437,-1.98438 0,-1.096172 -0.88847,-1.984378 -1.98437,-1.984378 z"
       id="path857"
       style="stroke-width:0;stroke-miterlimit:4;stroke-dasharray:none" />
    <path
       d="m 123.435,46.453689 h -4.86013 c -1.09617,0 -1.98437,0.888206 -1.98437,1.984378 0,1.09617 0.8882,1.98438 1.98437,1.98438 h 4.86013 c 1.09617,0 1.98438,-0.88821 1.98438,-1.98438 0,-1.096172 -0.88821,-1.984378 -1.98438,-1.984378 z"
       id="path859"
       style="stroke-width:0;stroke-miterlimit:4;stroke-dasharray:none" />
    <path
       d="m 134.9375,50.422447 h 4.86013 c 1.09617,0 1.98438,-0.88821 1.98438,-1.98438 0,-1.096172 -0.88821,-1.984378 -1.98438,-1.984378 h -4.86013 c -1.09617,0 -1.98437,0.888206 -1.98437,1.984378 0,1.09617 0.8882,1.98438 1.98437,1.98438 z"
       id="path861"
       style="stroke-width:0;stroke-miterlimit:4;stroke-dasharray:none" />
    <path
       d="m 90.709486,54.542547 h -4.860131 c -1.096169,0 -1.984375,0.8882 -1.984375,1.98437 0,1.09617 0.888206,1.98438 1.984375,1.98438 h 4.860131 c 1.096169,0 1.984375,-0.88821 1.984375,-1.98438 0,-1.09617 -0.888471,-1.98437 -1.984375,-1.98437 z"
       id="path863"
       style="stroke-width:0;stroke-miterlimit:4;stroke-dasharray:none" />
    <path
       d="m 107.07238,54.542547 h -4.86013 c -1.09617,0 -1.98438,0.8882 -1.98438,1.98437 0,1.09617 0.88821,1.98438 1.98438,1.98438 h 4.86013 c 1.09617,0 1.98437,-0.88821 1.98437,-1.98438 0,-1.09617 -0.88847,-1.98437 -1.98437,-1.98437 z"
       id="path865"
       style="stroke-width:0;stroke-miterlimit:4;stroke-dasharray:none" />
    <path
       d="m 123.435,54.542547 h -4.86013 c -1.09617,0 -1.98437,0.8882 -1.98437,1.98437 0,1.09617 0.8882,1.98438 1.98437,1.98438 h 4.86013 c 1.09617,0 1.98438,-0.88821 1.98438,-1.98438 0,-1.09617 -0.88821,-1.98437 -1.98438,-1.98437 z"
       id="path867"
       style="stroke-width:0;stroke-miterlimit:4;stroke-dasharray:none" />
    <path
       d="m 134.9375,58.511297 h 4.86013 c 1.09617,0 1.98438,-0.88821 1.98438,-1.98438 0,-1.09617 -0.88821,-1.98437 -1.98438,-1.98437 h -4.86013 c -1.09617,0 -1.98437,0.8882 -1.98437,1.98437 0,1.09617 0.8882,1.98438 1.98437,1.98438 z"
       id="path869"
       style="stroke-width:0;stroke-miterlimit:4;stroke-dasharray:none" />
    <path
       d="m 127,64.558331 c 0,1.09617 0.88821,1.98437 1.98438,1.98437 h 18.39304 c 2.4802,0 4.49791,-2.01771 4.49791,-4.49791 V 31.897353 c 0,-2.480204 -2.01771,-4.497916 -4.49791,-4.497916 H 78.360858 c -2.480204,0 -4.497917,2.017712 -4.497917,4.497916 v 30.147438 c 0,2.4802 2.017713,4.49791 4.497917,4.49791 h 42.689722 c 1.09617,0 1.98438,-0.8882 1.98438,-1.98437 0,-1.09617 -0.88821,-1.98438 -1.98438,-1.98438 H 78.360858 c -0.291836,0 -0.529167,-0.23733 -0.529167,-0.52916 V 31.897353 c 0,-0.291835 0.237331,-0.529166 0.529167,-0.529166 h 69.016562 c 0.29183,0 0.52916,0.237331 0.52916,0.529166 v 30.147438 c 0,0.29183 -0.23733,0.52916 -0.52916,0.52916 h -18.39304 c -1.09591,0 -1.98438,0.88847 -1.98438,1.98438 z"
       id="path897"
       style="stroke-width:0;stroke-miterlimit:4;stroke-dasharray:none" />
    <path
       d="m 164.05856,13.114287 h -11.92265 c -1.09617,0 -1.98437,0.888207 -1.98437,1.984375 0,1.096169 0.8882,1.984375 1.98437,1.984375 H 163.2455 V 131.49655 H 67.049087 c 0,-3.65865 0,-108.97024 0,-114.413513 h 77.153023 c 1.09617,0 1.98438,-0.888206 1.98438,-1.984375 0,-1.096168 -0.88821,-1.984375 -1.98438,-1.984375 H 66.236287 c -1.740165,0 -3.15595,1.415786 -3.15595,3.155686 V 41.710718 H 36.174329 c -2.440782,0 -4.426744,1.985963 -4.426744,4.426744 V 66.28998 c 0,1.096169 0.888206,1.984375 1.984375,1.984375 1.096169,0 1.984375,-0.888206 1.984375,-1.984375 V 46.137462 c 0,-0.252677 0.205317,-0.457994 0.457994,-0.457994 h 26.905743 v 39.824025 c -5.263621,0 -20.162308,0 -26.905743,0 -0.252677,0 -0.457994,-0.205317 -0.457994,-0.457994 V 74.22457 c 0,-1.096169 -0.888206,-1.984375 -1.984375,-1.984375 -1.096169,0 -1.984375,0.888206 -1.984375,1.984375 v 10.820929 c 0,2.441046 1.985962,4.426744 4.426744,4.426744 h 3.950758 v 2.518039 c 0,2.274094 1.849967,4.124061 4.123796,4.124061 h 3.16521 v 14.687827 c 0,5.57477 4.535752,10.11052 10.110523,10.11052 h 5.555721 v 11.39666 c 0,1.7399 1.415785,3.15569 3.15595,3.15569 h 97.822543 c 1.7399,0 3.15568,-1.41579 3.15568,-3.15569 V 16.269708 c -2.6e-4,-1.7399 -1.41605,-3.155421 -3.15595,-3.155421 z M 44.093837,91.990018 v -2.51804 h 10.609262 v 2.51804 c 0,0.08546 -0.06985,0.15531 -0.15531,0.15531 H 44.248883 c -0.08546,0 -0.155046,-0.06985 -0.155046,-0.15531 z m 13.430779,24.953922 c -3.386667,0 -6.141773,-2.7551 -6.141773,-6.14177 V 96.113813 h 3.164946 c 2.274094,0 4.12406,-1.849966 4.12406,-4.12406 v -2.518039 h 4.408488 v 27.471966 h -5.555721 z"
       id="path899"
       style="stroke-width:0;stroke-miterlimit:4;stroke-dasharray:none" />
    <path
       style="fill:#ffffff;fill-opacity:1;stroke:#fcfcfc;stroke-width:4.565;stroke-linecap:butt;stroke-linejoin:miter;stroke-miterlimit:4;stroke-dasharray:none;stroke-opacity:1"
       d="m 105.83333,15.345835 h 15.875"
       id="path981" />
    <path
       style="fill:#ff6600;fill-opacity:1;stroke:#fcfcfc;stroke-width:4.60004;stroke-linecap:butt;stroke-linejoin:miter;stroke-miterlimit:4;stroke-dasharray:none;stroke-opacity:1"
       d="M 177.27083,92.604167 V 113.77084"
       id="path981-3"
       inkscape:transform-center-x="-2.8518709"
       inkscape:transform-center-y="-8.0563398"
       sodipodi:nodetypes="cc" />
    <path
       style="fill:none;stroke:#000000;stroke-width:3.365;stroke-linecap:round;stroke-linejoin:miter;stroke-miterlimit:4;stroke-dasharray:none;stroke-opacity:1"
       d="M 79.374999,-7.9375004 V 2.6458333 H 100.54167 L 105.83334,15.875"
       id="path1003" />
    <path
       style="fill:none;stroke:#000000;stroke-width:3.365;stroke-linecap:round;stroke-linejoin:miter;stroke-miterlimit:4;stroke-dasharray:none;stroke-opacity:1"
       d="M 148.16667,-7.9375007 V 2.6458333 H 127.00001 L 121.70834,15.875"
       id="path1003-6" />
    <path
       style="fill:#008000;stroke:#008000;stroke-width:2.489;stroke-linecap:butt;stroke-linejoin:miter;stroke-miterlimit:4;stroke-dasharray:none;stroke-opacity:1;marker-end:url(#Arrow2Send)"
       d="M 113.24166,12.170835 V 22.754168"
       id="path1025" />
    <rect
       style="opacity:1;fill:#ffffff;fill-opacity:1;stroke:none;stroke-width:2.489;stroke-linecap:round;stroke-miterlimit:4;stroke-dasharray:none;stroke-opacity:1;paint-order:fill markers stroke;stop-color:#000000"
       id="rect1705"
       width="13.229166"
       height="21.166666"
       x="158.75"
       y="92.604164"
       rx="1.0225034" />
    <path
       style="fill:none;stroke:#000000;stroke-width:3.665;stroke-linecap:round;stroke-linejoin:miter;stroke-miterlimit:4;stroke-dasharray:none;stroke-opacity:1"
       d="m 165.10001,112.71251 h 50.27083 v -10.58334"
       id="path1707" />
    <text
       xml:space="preserve"
       id="text1729"
       style="font-family:sans-serif;font-size:4.23333333px;line-height:1.25;letter-spacing:0px;word-spacing:0px;white-space:pre;shape-inside:url(#rect1731);" />
    <rect
       style="opacity:1;fill:#006680;fill-opacity:1;stroke:none;stroke-width:3.66501;stroke-linecap:round;stroke-miterlimit:4;stroke-dasharray:none;stroke-opacity:1;paint-order:fill markers stroke;stop-color:#000000"
       id="rect1751"
       width="82.020836"
       height="13.229166"
       x="74.083336"
       y="68.791664"
       rx="5.2916718"
       ry="5.2916694" />
    <text
       xml:space="preserve"
       style="font-size:9.87778px;line-height:1.25;font-family:sans-serif;letter-spacing:0px;word-spacing:0px;stroke-width:0.264583"
       x="95.960976"
       y="78.656319"
       id="text1755"><tspan
         sodipodi:role="line"
         id="tspan1753"
         x="95.960976"
         y="78.656319"
         style="font-style:normal;font-variant:normal;font-weight:bold;font-stretch:normal;font-size:9.87778px;font-family:sans-serif;-inkscape-font-specification:'sans-serif Bold';fill:#ffffff;stroke-width:0.264583">accueil</tspan></text>
    <path
       d="m 157.16249,92.604167 c 0,-3.95844 -3.2205,-7.17894 -7.1792,-7.17894 -3.9587,0 -7.1792,3.2205 -7.1792,7.17894 0,3.958693 3.2205,7.179203 7.1792,7.179203 3.9587,0 7.1792,-3.22051 7.1792,-7.179203 z m -7.1792,3.210453 c -1.77006,0 -3.21045,-1.440133 -3.21045,-3.210453 0,-1.77033 1.44012,-3.21019 3.21045,-3.21019 1.77033,0 3.21045,1.43986 3.21045,3.21019 0,1.77032 -1.44012,3.210453 -3.21045,3.210453 z"
       id="path835-7"
       style="stroke-width:0;stroke-miterlimit:4;stroke-dasharray:none" />
    <path
       style="fill:#008000;stroke:#008000;stroke-width:2.489;stroke-linecap:butt;stroke-linejoin:miter;stroke-miterlimit:4;stroke-dasharray:none;stroke-opacity:1;marker-end:url(#Arrow2Send-5)"
       d="m 156.10528,103.34138 0.97209,-0.0141 9.61013,-0.13975"
       id="path1025-5"
       sodipodi:nodetypes="ccc" />
    <path
       d="m 74.083333,21.166667 c -0.77523,-0.7747 -2.03147,-0.7747 -2.80643,0 l -0.15293,0.152929 c -0.77497,0.775229 -0.77497,2.031471 0,2.806436 0.38761,0.38735 0.89561,0.581025 1.40335,0.581025 0.50773,0 1.01573,-0.193675 1.40335,-0.581025 l 0.15293,-0.15293 c 0.77443,-0.774964 0.77443,-2.031206 -2.7e-4,-2.806435 z"
       id="path891-6"
       style="stroke-width:0;stroke-miterlimit:4;stroke-dasharray:none" />
  </g>
</svg>
